<svg id="Layer_1" data-name="Layer 1" xmlns="http://www.w3.org/2000/svg" viewBox="0 0 914.23 116.38"><defs><style>.cls-1,.cls-2{fill:#31404c;}.cls-1{fill-rule:evenodd;}</style></defs><path class="cls-1" d="M506,481.17l80,56.38v15.9l-65.74-48.94-.26.13v65.72l14.33-11.28,25.07,16.4-19.7-2.05L506.7,597H506Z" transform="translate(-506 -481)"/><path class="cls-1" d="M606.52,481q.13,58.18.26,116.38l-79.72-56.65q.12-8.09.26-16.15l.51.51,65.36,48.45V507.66l-12,9.08-24.11-12v-.4l20-2.05Z" transform="translate(-506 -481)"/><path class="cls-2" d="M670.67,578l-13.15-19H643v19H628V511h28.06a35,35,0,0,1,15,3,22.43,22.43,0,0,1,9.77,8.42,23.82,23.82,0,0,1,3.42,12.92,23.29,23.29,0,0,1-3.47,12.88,22.13,22.13,0,0,1-9.86,8.27L685.41,578Zm-4.76-51q-3.58-3-10.47-3H643v23h12.44q6.88,0,10.47-3a10.49,10.49,0,0,0,3.58-8.48Q669.49,529.93,665.91,527Z" transform="translate(-506 -481)"/><path class="cls-2" d="M737.57,564H707.23l-5.78,14H685l29.87-67H730.2l30,67H743.35ZM733,552l-10.54-25.46L711.9,552Z" transform="translate(-506 -481)"/><path class="cls-2" d="M763,511h15v67H763Z" transform="translate(-506 -481)"/><path class="cls-2" d="M790,511h16v54h33v13H790Z" transform="translate(-506 -481)"/><path class="cls-2" d="M850.46,576.64a35.5,35.5,0,0,1-11.83-5.56l5.23-11.58a35.72,35.72,0,0,0,10.16,5,38.08,38.08,0,0,0,11.78,1.9q6.56,0,9.69-1.95a5.87,5.87,0,0,0,3.14-5.17,5,5,0,0,0-1.86-3.95,14,14,0,0,0-4.75-2.51c-1.93-.64-4.54-1.33-7.83-2.09a110.32,110.32,0,0,1-12.45-3.61,20.27,20.27,0,0,1-8.31-5.8q-3.46-4-3.47-10.64a18.54,18.54,0,0,1,3.14-10.5,21.07,21.07,0,0,1,9.45-7.45A38.52,38.52,0,0,1,868,510a51.24,51.24,0,0,1,12.44,1.52,36.71,36.71,0,0,1,10.64,4.37l-4.75,11.69a37,37,0,0,0-18.43-5.23q-6.46,0-9.55,2.09a6.36,6.36,0,0,0-3.08,5.51c0,2.28,1.18,4,3.56,5.08a55.87,55.87,0,0,0,10.88,3.28,108.62,108.62,0,0,1,12.44,3.61,20.52,20.52,0,0,1,8.31,5.7q3.46,3.9,3.47,10.55a18.17,18.17,0,0,1-3.18,10.4,21.38,21.38,0,0,1-9.55,7.45,38.82,38.82,0,0,1-15.48,2.76A54.24,54.24,0,0,1,850.46,576.64Z" transform="translate(-506 -481)"/><path class="cls-2" d="M985,511v67H971.72L939,537.32V578H924V511h13.38L970,551.68V511Z" transform="translate(-506 -481)"/><path class="cls-2" d="M1048,565v13H997V511h50v12h-35v15h31v12h-31v15Z" transform="translate(-506 -481)"/><path class="cls-2" d="M1071,524h-21V511h58v13h-22v54h-15Z" transform="translate(-506 -481)"/><path class="cls-2" d="M1211.71,511l-21.92,67h-16.65l-14.74-45.37L1143.18,578h-16.56l-22-67h16.08l15.12,47.09L1151.6,511H1166l15.32,47.47,15.6-47.47Z" transform="translate(-506 -481)"/><path class="cls-2" d="M1228.94,574.31a33,33,0,0,1-13-12.3,35.38,35.38,0,0,1,0-35.24,33,33,0,0,1,13-12.3,41.1,41.1,0,0,1,37.28,0,33.9,33.9,0,0,1,0,59.84,41.1,41.1,0,0,1-37.28,0Zm29.3-11.35a19.34,19.34,0,0,0,7.46-7.55,23.76,23.76,0,0,0,0-22,19.34,19.34,0,0,0-7.46-7.55,22.24,22.24,0,0,0-21.28,0,19.38,19.38,0,0,0-7.45,7.55,23.76,23.76,0,0,0,0,22A19.38,19.38,0,0,0,1237,563a22.24,22.24,0,0,0,21.28,0Z" transform="translate(-506 -481)"/><path class="cls-2" d="M1334.67,578l-13.15-19H1307v19h-15V511h28.06a35,35,0,0,1,15,3,22.43,22.43,0,0,1,9.77,8.42,23.82,23.82,0,0,1,3.42,12.92,23.29,23.29,0,0,1-3.47,12.88,22.13,22.13,0,0,1-9.86,8.27L1349.41,578Zm-4.76-51q-3.59-3-10.47-3H1307v23h12.44q6.88,0,10.47-3a10.49,10.49,0,0,0,3.58-8.48Q1333.49,529.93,1329.91,527Z" transform="translate(-506 -481)"/><path class="cls-2" d="M1381.76,551.68l-8.76,9.38V578h-15V511h15v31.3l28.88-31.3h16.77l-27,29.86,28.6,37.14h-17.6Z" transform="translate(-506 -481)"/></svg>