<svg xmlns="http://www.w3.org/2000/svg" viewBox="0 0 914.23 156.96"><defs><style>.cls-1,.cls-2{fill:#b9cad8;}.cls-1{fill-rule:evenodd;}</style></defs><g id="Layer_2" data-name="Layer 2"><g id="Layer_1-2" data-name="Layer 1"><path class="cls-1" d="M0,.23,107.9,76.28V97.71l-88.67-66-.35.18v88.63L38.2,105.31,72,127.43l-26.57-2.77L.94,156.45H0Z"/><path class="cls-1" d="M135.58,0q.16,78.47.34,157L28.4,80.55q.18-10.89.35-21.78l.69.7,88.16,65.34V36L101.37,48.2,68.85,32v-.54l27-2.76Z"/><path class="cls-2" d="M186.43,116.19,173.66,97.4h-14.1v18.79H145V50h27.24a33.53,33.53,0,0,1,14.52,2.93,21.89,21.89,0,0,1,9.49,8.33A23.91,23.91,0,0,1,199.57,74a23.34,23.34,0,0,1-3.37,12.73,21.69,21.69,0,0,1-9.57,8.19l14.11,21.29Zm-4.62-50.45q-3.48-2.94-10.16-2.94H159.56V85.54h12.09q6.67,0,10.16-3a10.49,10.49,0,0,0,3.47-8.39C185.28,70.51,184.12,67.69,181.81,65.74Z"/><path class="cls-2" d="M251.39,102.35H221.93l-5.61,13.84H200.37l29-66.24h14.87l29.09,66.24H257ZM247,90.48,236.71,65.31,226.47,90.48Z"/><path class="cls-2" d="M276.08,50h14.57v66.24H276.08Z"/><path class="cls-2" d="M302.3,50h15.53v53.39h32v12.85H302.3Z"/><path class="cls-2" d="M361,114.85a34.3,34.3,0,0,1-11.48-5.5l5.07-11.46a34.11,34.11,0,0,0,9.87,5,36.5,36.5,0,0,0,11.44,1.88q6.36,0,9.41-1.93a5.83,5.83,0,0,0,3-5.11,4.92,4.92,0,0,0-1.8-3.9,13.73,13.73,0,0,0-4.61-2.49c-1.88-.63-4.41-1.32-7.61-2.07a103.26,103.26,0,0,1-12.08-3.57A19.58,19.58,0,0,1,354.17,80q-3.36-3.95-3.36-10.51a18.53,18.53,0,0,1,3-10.38A20.59,20.59,0,0,1,363,51.68,37,37,0,0,1,378,49a48.81,48.81,0,0,1,12.08,1.5,35.45,35.45,0,0,1,10.33,4.32l-4.61,11.56a35.45,35.45,0,0,0-17.89-5.17q-6.29,0-9.27,2.07a6.32,6.32,0,0,0-3,5.44c0,2.26,1.15,3.93,3.46,5A53.42,53.42,0,0,0,379.68,77a103.26,103.26,0,0,1,12.08,3.57,20,20,0,0,1,8.07,5.63q3.38,3.85,3.37,10.43a18.16,18.16,0,0,1-3.09,10.28,20.86,20.86,0,0,1-9.27,7.38,37.3,37.3,0,0,1-15,2.72A51.86,51.86,0,0,1,361,114.85Z"/><path class="cls-2" d="M491.64,50v66.24h-12.9L447,76v40.22H432.41V50h13l31.68,40.22V50Z"/><path class="cls-2" d="M552.81,103.34v12.85H503.29V50h48.55V61.81h-34V76.64H548V88.51h-30.1v14.83Z"/><path class="cls-2" d="M575.14,62.8H554.75V50h56.31V62.8H589.7v53.39H575.14Z"/><path class="cls-2" d="M711.77,50l-21.29,66.24H674.31L660,71.33l-14.77,44.86H629.15L607.77,50h15.61l14.69,46.56L653.4,50h13.94l14.87,46.93L697.36,50Z"/><path class="cls-2" d="M728.49,112.55a32.52,32.52,0,0,1-12.64-12.17A33.68,33.68,0,0,1,711.29,83a33.68,33.68,0,0,1,4.56-17.42,32.52,32.52,0,0,1,12.64-12.17,39.35,39.35,0,0,1,36.2,0,32.86,32.86,0,0,1,12.64,12.17A33.33,33.33,0,0,1,781.94,83a33.33,33.33,0,0,1-4.61,17.42,32.86,32.86,0,0,1-12.64,12.17,39.35,39.35,0,0,1-36.2,0ZM757,101.32a19.1,19.1,0,0,0,7.24-7.46,23.9,23.9,0,0,0,0-21.8A19.1,19.1,0,0,0,757,64.6a21.27,21.27,0,0,0-20.67,0A19.1,19.1,0,0,0,729,72.06a23.9,23.9,0,0,0,0,21.8,19.1,19.1,0,0,0,7.24,7.46,21.27,21.27,0,0,0,20.67,0Z"/><path class="cls-2" d="M831.16,116.19,818.38,97.4H804.29v18.79H789.72V50H817a33.5,33.5,0,0,1,14.52,2.93A21.89,21.89,0,0,1,841,61.21,23.91,23.91,0,0,1,844.29,74a23.34,23.34,0,0,1-3.37,12.73,21.63,21.63,0,0,1-9.57,8.19l14.11,21.29Zm-4.63-50.45q-3.48-2.94-10.16-2.94H804.29V85.54h12.08q6.68,0,10.16-3A10.46,10.46,0,0,0,830,74.17C830,70.51,828.85,67.69,826.53,65.74Z"/><path class="cls-2" d="M876.87,90.17l-8.5,9.27v16.75H853.81V50h14.56V80.89l28-30.94H912.7L886.46,79.47l27.77,36.72H897.14Z"/></g></g></svg>