<svg id="Layer_1" data-name="Layer 1" xmlns="http://www.w3.org/2000/svg" viewBox="0 0 22 22"><defs><style>.cls-1{fill:#037f06;}.cls-2{fill:#f9f9f9;}</style></defs><path class="cls-1" d="M15,4h0A11,11,0,0,1,26,15h0A11,11,0,0,1,15,26h0A11,11,0,0,1,4,15H4A11,11,0,0,1,15,4Z" transform="translate(-4 -4)"/><g id="Layer_2" data-name="Layer 2"><g id="Layer_1-2" data-name="Layer 1-2"><polygon class="cls-2" points="17.05 4.05 17.05 17.95 7.53 11.18 7.53 9.27 15.46 15.17 15.46 7.17 13.65 8.53 11.1 6.85 13.46 6.61 17.05 4.05"/><polygon class="cls-2" points="14.47 10.82 14.47 12.73 6.54 6.83 6.54 14.83 8.27 13.44 11.27 15.39 8.9 15.14 4.95 17.95 4.95 4.05 14.47 10.82"/></g></g></svg>